<?xml version="1.0" encoding="utf-8"?>
<!-- Generator: Adobe Illustrator 16.0.4, SVG Export Plug-In . SVG Version: 6.00 Build 0)  -->
<!DOCTYPE svg PUBLIC "-//W3C//DTD SVG 1.1//EN" "http://www.w3.org/Graphics/SVG/1.1/DTD/svg11.dtd">
<svg version="1.1" id="Capa_1" xmlns="http://www.w3.org/2000/svg" xmlns:xlink="http://www.w3.org/1999/xlink" x="0px" y="0px"
	 width="512px" height="512px" viewBox="0 0 512 512" enable-background="new 0 0 512 512" xml:space="preserve">
<path d="M393.416,196.386c-29.516,0-56.043,12.298-74.926,32.347c-7.998,8.492-21.881,18.556-36.9,27.405
	c7.055-26.934,29.338-60.85,44.814-75.728c19.819-19.085,31.992-45.915,31.992-75.75C358.399,47.213,312.658,0.612,256.002,0
	c-56.66,0.611-102.398,47.213-102.398,104.659c0,29.836,12.172,56.665,31.993,75.75c15.477,14.878,37.76,48.794,44.814,75.728
	c-15.021-8.85-28.903-18.913-36.9-27.405c-18.884-20.049-45.41-32.347-74.925-32.347c-57.193,0-103.54,46.832-103.54,104.664
	c0,57.819,46.346,104.669,103.54,104.669c29.521,0,56.041-12.678,74.925-32.726c8.402-8.936,23.222-20.069,39.146-29.316
	c-1.501,73.847-36.766,128.084-72.659,149.453V512h96.005h96.002v-18.87c-35.896-21.368-71.159-75.607-72.659-149.453
	c15.926,9.247,30.743,20.384,39.146,29.316c18.883,20.047,45.403,32.726,74.926,32.726c57.193,0,103.539-46.85,103.539-104.669
	C496.955,243.218,450.61,196.386,393.416,196.386z"/>
</svg>
